<mxfile host="Electron" agent="Mozilla/5.0 (Windows NT 10.0; Win64; x64) AppleWebKit/537.36 (KHTML, like Gecko) draw.io/24.7.17 Chrome/128.0.6613.36 Electron/32.0.1 Safari/537.36" version="24.7.17">
  <diagram name="Page-1" id="kgUyGNkdVzjtBEyI5HbM">
    <mxGraphModel dx="2284" dy="1944" grid="1" gridSize="10" guides="1" tooltips="1" connect="1" arrows="1" fold="1" page="1" pageScale="1" pageWidth="850" pageHeight="1100" math="0" shadow="0">
      <root>
        <mxCell id="0" />
        <mxCell id="1" parent="0" />
        <mxCell id="fya-JSUQ_MmqU_CgoYYm-9" value="&lt;font color=&quot;#ffffff&quot;&gt;Instruction Memory&lt;/font&gt;" style="swimlane;whiteSpace=wrap;html=1;rounded=1;strokeColor=default;align=center;verticalAlign=middle;fontFamily=Helvetica;fontSize=12;fontColor=default;fillColor=#FF1717;absoluteArcSize=0;swimlaneFillColor=default;" parent="1" vertex="1">
          <mxGeometry x="-30" y="193" width="150" height="235" as="geometry" />
        </mxCell>
        <mxCell id="1W33FOhmNmDA0zy-Gag4-36" value="placeholder_instr_mem" style="text;html=1;align=center;verticalAlign=middle;whiteSpace=wrap;rounded=0;" vertex="1" parent="fya-JSUQ_MmqU_CgoYYm-9">
          <mxGeometry y="27.5" width="150" height="205" as="geometry" />
        </mxCell>
        <mxCell id="fya-JSUQ_MmqU_CgoYYm-11" style="edgeStyle=orthogonalEdgeStyle;rounded=0;orthogonalLoop=1;jettySize=auto;html=1;exitX=0;exitY=0.75;exitDx=0;exitDy=0;entryX=0;entryY=0.5;entryDx=0;entryDy=0;fontFamily=Helvetica;fontSize=12;fontColor=default;endArrow=none;endFill=0;strokeWidth=2;" parent="1" source="fya-JSUQ_MmqU_CgoYYm-10" target="fya-JSUQ_MmqU_CgoYYm-9" edge="1">
          <mxGeometry relative="1" as="geometry" />
        </mxCell>
        <mxCell id="1W33FOhmNmDA0zy-Gag4-61" style="edgeStyle=orthogonalEdgeStyle;rounded=0;orthogonalLoop=1;jettySize=auto;html=1;exitX=1;exitY=0.5;exitDx=0;exitDy=0;strokeWidth=2;" edge="1" parent="1" source="fya-JSUQ_MmqU_CgoYYm-10" target="1W33FOhmNmDA0zy-Gag4-58">
          <mxGeometry relative="1" as="geometry" />
        </mxCell>
        <mxCell id="fya-JSUQ_MmqU_CgoYYm-10" value="&lt;font color=&quot;#ffffff&quot;&gt;Program Counter&lt;/font&gt;" style="swimlane;whiteSpace=wrap;html=1;rounded=1;strokeColor=default;align=center;verticalAlign=middle;fontFamily=Helvetica;fontSize=12;fontColor=default;fillColor=#FF1717;absoluteArcSize=0;swimlaneFillColor=default;" parent="1" vertex="1">
          <mxGeometry x="-30" y="54" width="120" height="70" as="geometry" />
        </mxCell>
        <object label="%pcValue%" pcValue="35" placeholders="1" id="fya-JSUQ_MmqU_CgoYYm-12">
          <mxCell style="text;html=1;align=center;verticalAlign=middle;whiteSpace=wrap;rounded=0;fontFamily=Helvetica;fontSize=16;fontColor=default;fontStyle=1" parent="fya-JSUQ_MmqU_CgoYYm-10" vertex="1">
            <mxGeometry x="30" y="30" width="60" height="30" as="geometry" />
          </mxCell>
        </object>
        <mxCell id="1W33FOhmNmDA0zy-Gag4-19" style="edgeStyle=orthogonalEdgeStyle;rounded=0;orthogonalLoop=1;jettySize=auto;html=1;exitX=1.007;exitY=0.086;exitDx=0;exitDy=0;exitPerimeter=0;strokeWidth=2;entryX=0;entryY=0.5;entryDx=0;entryDy=0;" edge="1" parent="1" source="1W33FOhmNmDA0zy-Gag4-40" target="1W33FOhmNmDA0zy-Gag4-68">
          <mxGeometry relative="1" as="geometry">
            <mxPoint x="476" y="140" as="sourcePoint" />
            <mxPoint x="545" y="140" as="targetPoint" />
          </mxGeometry>
        </mxCell>
        <mxCell id="fya-JSUQ_MmqU_CgoYYm-27" value="&lt;font color=&quot;#ffffff&quot;&gt;Register File&lt;/font&gt;" style="swimlane;whiteSpace=wrap;html=1;rounded=1;strokeColor=default;align=center;verticalAlign=middle;fontFamily=Helvetica;fontSize=12;fontColor=default;fillColor=#FF1717;absoluteArcSize=0;swimlaneFillColor=default;points=[[0,0,0,0,0],[0,0.18,0,0,0],[0,0.35,0,0,0],[0,0.5,0,0,0],[0,0.75,0,0,0],[0,1,0,0,0],[0.25,0,0,0,0],[0.25,1,0,0,0],[0.5,0,0,0,0],[0.5,1,0,0,0],[0.75,0,0,0,0],[0.75,1,0,0,0],[0.98,0.35,0,0,0],[1,0,0,0,0],[1,0.2,0,0,0],[1,0.75,0,0,0],[1,1,0,0,0]];" parent="1" vertex="1">
          <mxGeometry x="371" y="100" width="140" height="200" as="geometry">
            <mxRectangle x="370" y="170" width="70" height="30" as="alternateBounds" />
          </mxGeometry>
        </mxCell>
        <mxCell id="1W33FOhmNmDA0zy-Gag4-40" value="placeholder_reg_file" style="text;html=1;align=center;verticalAlign=middle;whiteSpace=wrap;rounded=0;" vertex="1" parent="fya-JSUQ_MmqU_CgoYYm-27">
          <mxGeometry y="25" width="140" height="175" as="geometry" />
        </mxCell>
        <mxCell id="1W33FOhmNmDA0zy-Gag4-4" value="" style="endArrow=oval;html=1;rounded=0;edgeStyle=orthogonalEdgeStyle;endFill=1;exitX=0;exitY=0.35;exitDx=0;exitDy=0;exitPerimeter=0;strokeWidth=2;" edge="1" parent="1" source="fya-JSUQ_MmqU_CgoYYm-27">
          <mxGeometry width="50" height="50" relative="1" as="geometry">
            <mxPoint x="330" y="180" as="sourcePoint" />
            <mxPoint x="300" y="140" as="targetPoint" />
            <Array as="points">
              <mxPoint x="370" y="170" />
              <mxPoint x="300" y="170" />
            </Array>
          </mxGeometry>
        </mxCell>
        <mxCell id="1W33FOhmNmDA0zy-Gag4-105" style="edgeStyle=orthogonalEdgeStyle;rounded=0;orthogonalLoop=1;jettySize=auto;html=1;exitX=1;exitY=0.5;exitDx=0;exitDy=0;entryX=0;entryY=0.5;entryDx=0;entryDy=0;strokeWidth=2;" edge="1" parent="1" source="1W33FOhmNmDA0zy-Gag4-5" target="1W33FOhmNmDA0zy-Gag4-94">
          <mxGeometry relative="1" as="geometry" />
        </mxCell>
        <mxCell id="1W33FOhmNmDA0zy-Gag4-5" value="Main&lt;div&gt;Control&lt;/div&gt;" style="ellipse;whiteSpace=wrap;html=1;" vertex="1" parent="1">
          <mxGeometry x="371" y="-20" width="70" height="100" as="geometry" />
        </mxCell>
        <mxCell id="1W33FOhmNmDA0zy-Gag4-6" value="" style="endArrow=oval;html=1;rounded=0;edgeStyle=orthogonalEdgeStyle;exitX=0;exitY=0.5;exitDx=0;exitDy=0;endFill=1;strokeWidth=2;" edge="1" parent="1" source="1W33FOhmNmDA0zy-Gag4-5">
          <mxGeometry width="50" height="50" relative="1" as="geometry">
            <mxPoint x="400" y="100" as="sourcePoint" />
            <mxPoint x="300" y="140" as="targetPoint" />
            <Array as="points">
              <mxPoint x="300" y="30" />
            </Array>
          </mxGeometry>
        </mxCell>
        <mxCell id="1W33FOhmNmDA0zy-Gag4-12" value="" style="endArrow=none;html=1;rounded=0;strokeWidth=2;" edge="1" parent="1">
          <mxGeometry width="50" height="50" relative="1" as="geometry">
            <mxPoint x="300" y="140" as="sourcePoint" />
            <mxPoint x="370" y="140" as="targetPoint" />
          </mxGeometry>
        </mxCell>
        <mxCell id="1W33FOhmNmDA0zy-Gag4-13" style="edgeStyle=orthogonalEdgeStyle;rounded=0;orthogonalLoop=1;jettySize=auto;html=1;entryX=0;entryY=0.5;entryDx=0;entryDy=0;startArrow=oval;startFill=1;strokeWidth=2;" edge="1" parent="1" target="1W33FOhmNmDA0zy-Gag4-71">
          <mxGeometry relative="1" as="geometry">
            <mxPoint x="300" y="90" as="sourcePoint" />
            <mxPoint x="580" y="90" as="targetPoint" />
          </mxGeometry>
        </mxCell>
        <mxCell id="1W33FOhmNmDA0zy-Gag4-24" style="edgeStyle=orthogonalEdgeStyle;rounded=0;orthogonalLoop=1;jettySize=auto;html=1;exitX=1;exitY=0.5;exitDx=0;exitDy=0;strokeWidth=2;entryX=0;entryY=0.5;entryDx=0;entryDy=0;" edge="1" parent="1" target="1W33FOhmNmDA0zy-Gag4-80">
          <mxGeometry relative="1" as="geometry">
            <mxPoint x="430" y="352" as="sourcePoint" />
            <mxPoint x="545" y="355" as="targetPoint" />
          </mxGeometry>
        </mxCell>
        <mxCell id="1W33FOhmNmDA0zy-Gag4-21" value="Ext" style="ellipse;whiteSpace=wrap;html=1;" vertex="1" parent="1">
          <mxGeometry x="425" y="327" width="40" height="50" as="geometry" />
        </mxCell>
        <mxCell id="1W33FOhmNmDA0zy-Gag4-25" value="" style="endArrow=oval;html=1;rounded=0;edgeStyle=orthogonalEdgeStyle;exitX=0;exitY=0.5;exitDx=0;exitDy=0;endFill=1;strokeWidth=2;" edge="1" parent="1" source="1W33FOhmNmDA0zy-Gag4-21">
          <mxGeometry width="50" height="50" relative="1" as="geometry">
            <mxPoint x="300" y="355" as="sourcePoint" />
            <mxPoint x="300" y="170" as="targetPoint" />
          </mxGeometry>
        </mxCell>
        <mxCell id="1W33FOhmNmDA0zy-Gag4-27" value="" style="endArrow=none;html=1;rounded=0;edgeStyle=orthogonalEdgeStyle;endFill=0;startArrow=classic;startFill=1;strokeWidth=2;exitX=0;exitY=0.5;exitDx=0;exitDy=0;" edge="1" parent="1" source="1W33FOhmNmDA0zy-Gag4-77">
          <mxGeometry width="50" height="50" relative="1" as="geometry">
            <mxPoint x="580" y="319" as="sourcePoint" />
            <mxPoint x="390" y="350" as="targetPoint" />
            <Array as="points">
              <mxPoint x="390" y="310" />
            </Array>
          </mxGeometry>
        </mxCell>
        <mxCell id="1W33FOhmNmDA0zy-Gag4-29" value="" style="endArrow=oval;html=1;rounded=0;edgeStyle=orthogonalEdgeStyle;endFill=1;startArrow=classic;startFill=1;strokeWidth=2;exitX=0;exitY=0.5;exitDx=0;exitDy=0;" edge="1" parent="1" source="1W33FOhmNmDA0zy-Gag4-83">
          <mxGeometry width="50" height="50" relative="1" as="geometry">
            <mxPoint x="580" y="389" as="sourcePoint" />
            <mxPoint x="390" y="350" as="targetPoint" />
            <Array as="points">
              <mxPoint x="390" y="394" />
            </Array>
          </mxGeometry>
        </mxCell>
        <mxCell id="1W33FOhmNmDA0zy-Gag4-34" value="" style="endArrow=oval;html=1;rounded=0;edgeStyle=orthogonalEdgeStyle;endFill=1;strokeWidth=2;exitX=0;exitY=0.5;exitDx=0;exitDy=0;startArrow=classic;startFill=1;" edge="1" parent="1" source="1W33FOhmNmDA0zy-Gag4-87">
          <mxGeometry width="50" height="50" relative="1" as="geometry">
            <mxPoint x="580.25" y="409" as="sourcePoint" />
            <mxPoint x="301.75" y="354" as="targetPoint" />
            <Array as="points">
              <mxPoint x="302" y="435" />
            </Array>
          </mxGeometry>
        </mxCell>
        <mxCell id="1W33FOhmNmDA0zy-Gag4-44" value="&lt;font color=&quot;#ffffff&quot;&gt;IF/ID&lt;/font&gt;" style="swimlane;whiteSpace=wrap;html=1;rounded=1;strokeColor=default;align=center;verticalAlign=middle;fontFamily=Helvetica;fontSize=12;fontColor=default;fillColor=#FF1717;absoluteArcSize=0;swimlaneFillColor=default;" vertex="1" parent="1">
          <mxGeometry x="180" y="49" width="80" height="471" as="geometry">
            <mxRectangle x="370" y="170" width="70" height="30" as="alternateBounds" />
          </mxGeometry>
        </mxCell>
        <mxCell id="1W33FOhmNmDA0zy-Gag4-49" value="" style="group" vertex="1" connectable="0" parent="1W33FOhmNmDA0zy-Gag4-44">
          <mxGeometry y="240" width="80" height="40" as="geometry" />
        </mxCell>
        <mxCell id="1W33FOhmNmDA0zy-Gag4-48" value="0x00008915" style="rounded=0;whiteSpace=wrap;html=1;verticalAlign=bottom;" vertex="1" parent="1W33FOhmNmDA0zy-Gag4-49">
          <mxGeometry y="10" width="80" height="30" as="geometry" />
        </mxCell>
        <mxCell id="1W33FOhmNmDA0zy-Gag4-63" style="edgeStyle=orthogonalEdgeStyle;rounded=0;orthogonalLoop=1;jettySize=auto;html=1;exitX=1;exitY=0.5;exitDx=0;exitDy=0;endArrow=none;endFill=0;strokeWidth=2;" edge="1" parent="1W33FOhmNmDA0zy-Gag4-49" source="1W33FOhmNmDA0zy-Gag4-47">
          <mxGeometry relative="1" as="geometry">
            <mxPoint x="120" y="10" as="targetPoint" />
          </mxGeometry>
        </mxCell>
        <mxCell id="1W33FOhmNmDA0zy-Gag4-47" value="&lt;b&gt;INSTR&lt;/b&gt;" style="rounded=1;whiteSpace=wrap;html=1;arcSize=30;" vertex="1" parent="1W33FOhmNmDA0zy-Gag4-49">
          <mxGeometry width="80" height="20" as="geometry" />
        </mxCell>
        <mxCell id="1W33FOhmNmDA0zy-Gag4-56" value="" style="group" vertex="1" connectable="0" parent="1W33FOhmNmDA0zy-Gag4-44">
          <mxGeometry y="30" width="80" height="40" as="geometry" />
        </mxCell>
        <mxCell id="1W33FOhmNmDA0zy-Gag4-57" value="0008915" style="rounded=0;whiteSpace=wrap;html=1;verticalAlign=bottom;" vertex="1" parent="1W33FOhmNmDA0zy-Gag4-56">
          <mxGeometry y="10" width="80" height="30" as="geometry" />
        </mxCell>
        <mxCell id="1W33FOhmNmDA0zy-Gag4-64" style="edgeStyle=orthogonalEdgeStyle;rounded=0;orthogonalLoop=1;jettySize=auto;html=1;exitX=1;exitY=0.5;exitDx=0;exitDy=0;endArrow=none;endFill=0;" edge="1" parent="1W33FOhmNmDA0zy-Gag4-56" source="1W33FOhmNmDA0zy-Gag4-58">
          <mxGeometry relative="1" as="geometry">
            <mxPoint x="120" y="10" as="targetPoint" />
          </mxGeometry>
        </mxCell>
        <mxCell id="1W33FOhmNmDA0zy-Gag4-58" value="&lt;b&gt;PC&lt;/b&gt;" style="rounded=1;whiteSpace=wrap;html=1;arcSize=30;" vertex="1" parent="1W33FOhmNmDA0zy-Gag4-56">
          <mxGeometry width="80" height="20" as="geometry" />
        </mxCell>
        <mxCell id="1W33FOhmNmDA0zy-Gag4-62" style="edgeStyle=orthogonalEdgeStyle;rounded=0;orthogonalLoop=1;jettySize=auto;html=1;exitX=0;exitY=0.5;exitDx=0;exitDy=0;entryX=1.006;entryY=0.387;entryDx=0;entryDy=0;entryPerimeter=0;startArrow=classic;startFill=1;endArrow=none;endFill=0;strokeWidth=2;" edge="1" parent="1" source="1W33FOhmNmDA0zy-Gag4-47" target="1W33FOhmNmDA0zy-Gag4-36">
          <mxGeometry relative="1" as="geometry" />
        </mxCell>
        <mxCell id="1W33FOhmNmDA0zy-Gag4-65" value="&lt;font color=&quot;#ffffff&quot;&gt;ID/EX&lt;/font&gt;" style="swimlane;whiteSpace=wrap;html=1;rounded=1;strokeColor=default;align=center;verticalAlign=middle;fontFamily=Helvetica;fontSize=12;fontColor=default;fillColor=#FF1717;absoluteArcSize=0;swimlaneFillColor=default;" vertex="1" parent="1">
          <mxGeometry x="555" y="-200" width="80" height="720" as="geometry">
            <mxRectangle x="370" y="170" width="70" height="30" as="alternateBounds" />
          </mxGeometry>
        </mxCell>
        <mxCell id="1W33FOhmNmDA0zy-Gag4-66" value="" style="group;" vertex="1" connectable="0" parent="1W33FOhmNmDA0zy-Gag4-65">
          <mxGeometry y="330" width="80" height="40" as="geometry" />
        </mxCell>
        <mxCell id="1W33FOhmNmDA0zy-Gag4-67" value="0x00008915" style="rounded=0;whiteSpace=wrap;html=1;verticalAlign=bottom;" vertex="1" parent="1W33FOhmNmDA0zy-Gag4-66">
          <mxGeometry y="10" width="80" height="30" as="geometry" />
        </mxCell>
        <mxCell id="1W33FOhmNmDA0zy-Gag4-68" value="&lt;b&gt;RD1&lt;/b&gt;" style="rounded=1;whiteSpace=wrap;html=1;arcSize=30;" vertex="1" parent="1W33FOhmNmDA0zy-Gag4-66">
          <mxGeometry width="80" height="20" as="geometry" />
        </mxCell>
        <mxCell id="1W33FOhmNmDA0zy-Gag4-69" value="" style="group;" vertex="1" connectable="0" parent="1W33FOhmNmDA0zy-Gag4-65">
          <mxGeometry y="280" width="80" height="40" as="geometry" />
        </mxCell>
        <mxCell id="1W33FOhmNmDA0zy-Gag4-70" value="0008915" style="rounded=0;whiteSpace=wrap;html=1;verticalAlign=bottom;" vertex="1" parent="1W33FOhmNmDA0zy-Gag4-69">
          <mxGeometry y="10" width="80" height="30" as="geometry" />
        </mxCell>
        <mxCell id="1W33FOhmNmDA0zy-Gag4-71" value="&lt;b&gt;PC&lt;/b&gt;" style="rounded=1;whiteSpace=wrap;html=1;arcSize=30;" vertex="1" parent="1W33FOhmNmDA0zy-Gag4-69">
          <mxGeometry width="80" height="20" as="geometry" />
        </mxCell>
        <mxCell id="1W33FOhmNmDA0zy-Gag4-72" value="" style="group;" vertex="1" connectable="0" parent="1W33FOhmNmDA0zy-Gag4-65">
          <mxGeometry y="380" width="80" height="40" as="geometry" />
        </mxCell>
        <mxCell id="1W33FOhmNmDA0zy-Gag4-73" value="0x00008915" style="rounded=0;whiteSpace=wrap;html=1;verticalAlign=bottom;" vertex="1" parent="1W33FOhmNmDA0zy-Gag4-72">
          <mxGeometry y="10" width="80" height="30" as="geometry" />
        </mxCell>
        <mxCell id="1W33FOhmNmDA0zy-Gag4-74" value="&lt;b&gt;RD2&lt;/b&gt;" style="rounded=1;whiteSpace=wrap;html=1;arcSize=30;" vertex="1" parent="1W33FOhmNmDA0zy-Gag4-72">
          <mxGeometry width="80" height="20" as="geometry" />
        </mxCell>
        <mxCell id="1W33FOhmNmDA0zy-Gag4-75" value="" style="group;" vertex="1" connectable="0" parent="1W33FOhmNmDA0zy-Gag4-65">
          <mxGeometry y="500" width="80" height="40" as="geometry" />
        </mxCell>
        <mxCell id="1W33FOhmNmDA0zy-Gag4-76" value="0x00008915" style="rounded=0;whiteSpace=wrap;html=1;verticalAlign=bottom;" vertex="1" parent="1W33FOhmNmDA0zy-Gag4-75">
          <mxGeometry y="10" width="80" height="30" as="geometry" />
        </mxCell>
        <mxCell id="1W33FOhmNmDA0zy-Gag4-77" value="&lt;b&gt;SA&lt;/b&gt;" style="rounded=1;whiteSpace=wrap;html=1;arcSize=30;" vertex="1" parent="1W33FOhmNmDA0zy-Gag4-75">
          <mxGeometry width="80" height="20" as="geometry" />
        </mxCell>
        <mxCell id="1W33FOhmNmDA0zy-Gag4-78" value="" style="group;" vertex="1" connectable="0" parent="1W33FOhmNmDA0zy-Gag4-65">
          <mxGeometry y="542" width="80" height="40" as="geometry" />
        </mxCell>
        <mxCell id="1W33FOhmNmDA0zy-Gag4-79" value="0x00008915" style="rounded=0;whiteSpace=wrap;html=1;verticalAlign=bottom;" vertex="1" parent="1W33FOhmNmDA0zy-Gag4-78">
          <mxGeometry y="10" width="80" height="30" as="geometry" />
        </mxCell>
        <mxCell id="1W33FOhmNmDA0zy-Gag4-80" value="&lt;b&gt;OP_EXT&lt;/b&gt;" style="rounded=1;whiteSpace=wrap;html=1;arcSize=30;" vertex="1" parent="1W33FOhmNmDA0zy-Gag4-78">
          <mxGeometry width="80" height="20" as="geometry" />
        </mxCell>
        <mxCell id="1W33FOhmNmDA0zy-Gag4-81" value="" style="group;" vertex="1" connectable="0" parent="1W33FOhmNmDA0zy-Gag4-65">
          <mxGeometry y="583" width="80" height="40" as="geometry" />
        </mxCell>
        <mxCell id="1W33FOhmNmDA0zy-Gag4-82" value="0x00008915" style="rounded=0;whiteSpace=wrap;html=1;verticalAlign=bottom;" vertex="1" parent="1W33FOhmNmDA0zy-Gag4-81">
          <mxGeometry y="10" width="80" height="30" as="geometry" />
        </mxCell>
        <mxCell id="1W33FOhmNmDA0zy-Gag4-83" value="&lt;b&gt;FUNC&lt;/b&gt;" style="rounded=1;whiteSpace=wrap;html=1;arcSize=30;" vertex="1" parent="1W33FOhmNmDA0zy-Gag4-81">
          <mxGeometry y="1" width="80" height="20" as="geometry" />
        </mxCell>
        <mxCell id="1W33FOhmNmDA0zy-Gag4-85" value="" style="group;" vertex="1" connectable="0" parent="1W33FOhmNmDA0zy-Gag4-65">
          <mxGeometry y="625" width="80" height="40" as="geometry" />
        </mxCell>
        <mxCell id="1W33FOhmNmDA0zy-Gag4-86" value="0x00008915" style="rounded=0;whiteSpace=wrap;html=1;verticalAlign=bottom;" vertex="1" parent="1W33FOhmNmDA0zy-Gag4-85">
          <mxGeometry y="10" width="80" height="30" as="geometry" />
        </mxCell>
        <mxCell id="1W33FOhmNmDA0zy-Gag4-87" value="&lt;b&gt;RT&lt;/b&gt;" style="rounded=1;whiteSpace=wrap;html=1;arcSize=30;" vertex="1" parent="1W33FOhmNmDA0zy-Gag4-85">
          <mxGeometry width="80" height="20" as="geometry" />
        </mxCell>
        <mxCell id="1W33FOhmNmDA0zy-Gag4-89" value="" style="group;" vertex="1" connectable="0" parent="1W33FOhmNmDA0zy-Gag4-65">
          <mxGeometry y="667" width="80" height="40" as="geometry" />
        </mxCell>
        <mxCell id="1W33FOhmNmDA0zy-Gag4-90" value="0x00008915" style="rounded=0;whiteSpace=wrap;html=1;verticalAlign=bottom;" vertex="1" parent="1W33FOhmNmDA0zy-Gag4-89">
          <mxGeometry y="10" width="80" height="30" as="geometry" />
        </mxCell>
        <mxCell id="1W33FOhmNmDA0zy-Gag4-91" value="&lt;b&gt;RD&lt;/b&gt;" style="rounded=1;whiteSpace=wrap;html=1;arcSize=30;" vertex="1" parent="1W33FOhmNmDA0zy-Gag4-89">
          <mxGeometry width="80" height="20" as="geometry" />
        </mxCell>
        <mxCell id="1W33FOhmNmDA0zy-Gag4-104" value="" style="group" vertex="1" connectable="0" parent="1W33FOhmNmDA0zy-Gag4-65">
          <mxGeometry y="30" width="80" height="220" as="geometry" />
        </mxCell>
        <mxCell id="1W33FOhmNmDA0zy-Gag4-92" value="" style="group;" vertex="1" connectable="0" parent="1W33FOhmNmDA0zy-Gag4-104">
          <mxGeometry width="80" height="40" as="geometry" />
        </mxCell>
        <mxCell id="1W33FOhmNmDA0zy-Gag4-93" value="RegDst" style="rounded=0;whiteSpace=wrap;html=1;verticalAlign=bottom;" vertex="1" parent="1W33FOhmNmDA0zy-Gag4-92">
          <mxGeometry y="10" width="80" height="30" as="geometry" />
        </mxCell>
        <mxCell id="1W33FOhmNmDA0zy-Gag4-94" value="&lt;b&gt;CTRL_SIG&lt;/b&gt;" style="rounded=1;whiteSpace=wrap;html=1;arcSize=30;" vertex="1" parent="1W33FOhmNmDA0zy-Gag4-92">
          <mxGeometry width="80" height="20" as="geometry" />
        </mxCell>
        <mxCell id="1W33FOhmNmDA0zy-Gag4-95" value="ExtOp" style="rounded=0;whiteSpace=wrap;html=1;" vertex="1" parent="1W33FOhmNmDA0zy-Gag4-104">
          <mxGeometry y="40" width="80" height="20" as="geometry" />
        </mxCell>
        <mxCell id="1W33FOhmNmDA0zy-Gag4-96" value="AluSrc" style="rounded=0;whiteSpace=wrap;html=1;" vertex="1" parent="1W33FOhmNmDA0zy-Gag4-104">
          <mxGeometry y="60" width="80" height="20" as="geometry" />
        </mxCell>
        <mxCell id="1W33FOhmNmDA0zy-Gag4-97" value="Beq" style="rounded=0;whiteSpace=wrap;html=1;" vertex="1" parent="1W33FOhmNmDA0zy-Gag4-104">
          <mxGeometry y="80" width="80" height="20" as="geometry" />
        </mxCell>
        <mxCell id="1W33FOhmNmDA0zy-Gag4-98" value="Bgtz" style="rounded=0;whiteSpace=wrap;html=1;" vertex="1" parent="1W33FOhmNmDA0zy-Gag4-104">
          <mxGeometry y="100" width="80" height="20" as="geometry" />
        </mxCell>
        <mxCell id="1W33FOhmNmDA0zy-Gag4-99" value="Bne" style="rounded=0;whiteSpace=wrap;html=1;" vertex="1" parent="1W33FOhmNmDA0zy-Gag4-104">
          <mxGeometry y="120" width="80" height="20" as="geometry" />
        </mxCell>
        <mxCell id="1W33FOhmNmDA0zy-Gag4-100" value="Jmp" style="rounded=0;whiteSpace=wrap;html=1;" vertex="1" parent="1W33FOhmNmDA0zy-Gag4-104">
          <mxGeometry y="140" width="80" height="20" as="geometry" />
        </mxCell>
        <mxCell id="1W33FOhmNmDA0zy-Gag4-101" value="MemWrite" style="rounded=0;whiteSpace=wrap;html=1;" vertex="1" parent="1W33FOhmNmDA0zy-Gag4-104">
          <mxGeometry y="160" width="80" height="20" as="geometry" />
        </mxCell>
        <mxCell id="1W33FOhmNmDA0zy-Gag4-102" value="MemToReg" style="rounded=0;whiteSpace=wrap;html=1;" vertex="1" parent="1W33FOhmNmDA0zy-Gag4-104">
          <mxGeometry y="180" width="80" height="20" as="geometry" />
        </mxCell>
        <mxCell id="1W33FOhmNmDA0zy-Gag4-103" value="RegWrote" style="rounded=0;whiteSpace=wrap;html=1;" vertex="1" parent="1W33FOhmNmDA0zy-Gag4-104">
          <mxGeometry y="200" width="80" height="20" as="geometry" />
        </mxCell>
        <mxCell id="1W33FOhmNmDA0zy-Gag4-88" value="" style="endArrow=oval;html=1;rounded=0;edgeStyle=orthogonalEdgeStyle;endFill=1;strokeWidth=2;startArrow=classic;startFill=1;exitX=0;exitY=0.5;exitDx=0;exitDy=0;" edge="1" parent="1" source="1W33FOhmNmDA0zy-Gag4-91">
          <mxGeometry width="50" height="50" relative="1" as="geometry">
            <mxPoint x="530" y="490" as="sourcePoint" />
            <mxPoint x="301.75" y="435" as="targetPoint" />
            <Array as="points">
              <mxPoint x="302" y="477" />
            </Array>
          </mxGeometry>
        </mxCell>
        <mxCell id="1W33FOhmNmDA0zy-Gag4-162" style="edgeStyle=orthogonalEdgeStyle;rounded=0;orthogonalLoop=1;jettySize=auto;html=1;exitX=1;exitY=0.5;exitDx=0;exitDy=0;exitPerimeter=0;entryX=0;entryY=0.5;entryDx=0;entryDy=0;strokeWidth=2;" edge="1" parent="1" source="1W33FOhmNmDA0zy-Gag4-107" target="1W33FOhmNmDA0zy-Gag4-118">
          <mxGeometry relative="1" as="geometry" />
        </mxCell>
        <mxCell id="1W33FOhmNmDA0zy-Gag4-107" value="" style="shape=stencil(tZXRjoIwEEW/pq+bQsPq6wb1PyqOS2NtSdvV3b93oGCs0I0IJISkc7mHIb1DCcttySsgKS0J25A0TSjFO66vT2tuKyicL164EXwvwSvWGX2Cqzi4liFUCUa4WmVbQr/wmfpieaGVQojQygbKg44wLhR66a+Hta//C1YV8s/gwLRNNtXd68yPbAFqskSnIbPre95OZ6KGvSaL7NQ81ORNJsuxEgsxy/e8OH0b/aMOfVdUO2oDA8JdFlL6AYt9YMXruesJnXzWF/h/moawnVsK9eC+/wxaP5sKWI0FPGWMTvOvx9qz0P+ZTfOzsf7Q/sL+FVLbaHKwHgkPHguDmWs8vcQ2VX+ONIUb);whiteSpace=wrap;html=1;strokeWidth=1;points=[[0,0,0,0,0],[0,0.5,0,0,0],[0,0.9,0,0,0],[0.34,0.9,0,0,0],[0.5,0,0,0,0],[0.71,0.79,0,0,0],[1,0,0,0,0],[1,0.5,0,0,0]];" vertex="1" parent="1">
          <mxGeometry x="745" y="124" width="80" height="150" as="geometry" />
        </mxCell>
        <mxCell id="1W33FOhmNmDA0zy-Gag4-108" value="" style="shape=trapezoid;perimeter=trapezoidPerimeter;whiteSpace=wrap;html=1;fixedSize=1;rotation=90;" vertex="1" parent="1">
          <mxGeometry x="665" y="249" width="70" height="20" as="geometry" />
        </mxCell>
        <mxCell id="1W33FOhmNmDA0zy-Gag4-110" style="edgeStyle=orthogonalEdgeStyle;rounded=0;orthogonalLoop=1;jettySize=auto;html=1;exitX=0.5;exitY=0;exitDx=0;exitDy=0;entryX=0;entryY=0.9;entryDx=0;entryDy=0;entryPerimeter=0;strokeWidth=2;" edge="1" parent="1" source="1W33FOhmNmDA0zy-Gag4-108" target="1W33FOhmNmDA0zy-Gag4-107">
          <mxGeometry relative="1" as="geometry" />
        </mxCell>
        <mxCell id="1W33FOhmNmDA0zy-Gag4-111" style="edgeStyle=orthogonalEdgeStyle;rounded=0;orthogonalLoop=1;jettySize=auto;html=1;exitX=1;exitY=0.5;exitDx=0;exitDy=0;entryX=0.75;entryY=1;entryDx=0;entryDy=0;strokeWidth=2;" edge="1" parent="1" source="1W33FOhmNmDA0zy-Gag4-80" target="1W33FOhmNmDA0zy-Gag4-108">
          <mxGeometry relative="1" as="geometry" />
        </mxCell>
        <mxCell id="1W33FOhmNmDA0zy-Gag4-112" style="edgeStyle=orthogonalEdgeStyle;rounded=0;orthogonalLoop=1;jettySize=auto;html=1;exitX=1;exitY=0.5;exitDx=0;exitDy=0;entryX=0.25;entryY=1;entryDx=0;entryDy=0;strokeWidth=2;" edge="1" parent="1" source="1W33FOhmNmDA0zy-Gag4-74" target="1W33FOhmNmDA0zy-Gag4-108">
          <mxGeometry relative="1" as="geometry">
            <Array as="points">
              <mxPoint x="675" y="190" />
              <mxPoint x="675" y="242" />
            </Array>
          </mxGeometry>
        </mxCell>
        <mxCell id="1W33FOhmNmDA0zy-Gag4-113" style="edgeStyle=orthogonalEdgeStyle;rounded=0;orthogonalLoop=1;jettySize=auto;html=1;exitX=1;exitY=0.5;exitDx=0;exitDy=0;entryX=0.34;entryY=0.9;entryDx=0;entryDy=0;entryPerimeter=0;strokeWidth=2;" edge="1" parent="1" source="1W33FOhmNmDA0zy-Gag4-77" target="1W33FOhmNmDA0zy-Gag4-107">
          <mxGeometry relative="1" as="geometry">
            <mxPoint x="765" y="300" as="targetPoint" />
          </mxGeometry>
        </mxCell>
        <mxCell id="1W33FOhmNmDA0zy-Gag4-114" style="edgeStyle=orthogonalEdgeStyle;rounded=0;orthogonalLoop=1;jettySize=auto;html=1;exitX=1;exitY=0.5;exitDx=0;exitDy=0;entryX=-0.012;entryY=0.107;entryDx=0;entryDy=0;entryPerimeter=0;strokeWidth=2;" edge="1" parent="1" source="1W33FOhmNmDA0zy-Gag4-68" target="1W33FOhmNmDA0zy-Gag4-107">
          <mxGeometry relative="1" as="geometry" />
        </mxCell>
        <mxCell id="1W33FOhmNmDA0zy-Gag4-115" value="&lt;font color=&quot;#ffffff&quot;&gt;EX/MEM&lt;/font&gt;" style="swimlane;whiteSpace=wrap;html=1;rounded=1;strokeColor=default;align=center;verticalAlign=middle;fontFamily=Helvetica;fontSize=12;fontColor=default;fillColor=#FF1717;absoluteArcSize=0;swimlaneFillColor=default;" vertex="1" parent="1">
          <mxGeometry x="855" y="-200" width="80" height="720" as="geometry">
            <mxRectangle x="370" y="170" width="70" height="30" as="alternateBounds" />
          </mxGeometry>
        </mxCell>
        <mxCell id="1W33FOhmNmDA0zy-Gag4-116" value="" style="group;" vertex="1" connectable="0" parent="1W33FOhmNmDA0zy-Gag4-115">
          <mxGeometry y="389" width="80" height="40" as="geometry" />
        </mxCell>
        <mxCell id="1W33FOhmNmDA0zy-Gag4-117" value="0x00008915" style="rounded=0;whiteSpace=wrap;html=1;verticalAlign=bottom;" vertex="1" parent="1W33FOhmNmDA0zy-Gag4-116">
          <mxGeometry y="10" width="80" height="30" as="geometry" />
        </mxCell>
        <mxCell id="1W33FOhmNmDA0zy-Gag4-118" value="&lt;b&gt;RD1&lt;/b&gt;" style="rounded=1;whiteSpace=wrap;html=1;arcSize=30;" vertex="1" parent="1W33FOhmNmDA0zy-Gag4-116">
          <mxGeometry width="80" height="20" as="geometry" />
        </mxCell>
        <mxCell id="1W33FOhmNmDA0zy-Gag4-119" value="" style="group;" vertex="1" connectable="0" parent="1W33FOhmNmDA0zy-Gag4-115">
          <mxGeometry y="280" width="80" height="40" as="geometry" />
        </mxCell>
        <mxCell id="1W33FOhmNmDA0zy-Gag4-120" value="0008915" style="rounded=0;whiteSpace=wrap;html=1;verticalAlign=bottom;" vertex="1" parent="1W33FOhmNmDA0zy-Gag4-119">
          <mxGeometry y="10" width="80" height="30" as="geometry" />
        </mxCell>
        <mxCell id="1W33FOhmNmDA0zy-Gag4-121" value="&lt;b&gt;PC&lt;/b&gt;" style="rounded=1;whiteSpace=wrap;html=1;arcSize=30;" vertex="1" parent="1W33FOhmNmDA0zy-Gag4-119">
          <mxGeometry width="80" height="20" as="geometry" />
        </mxCell>
        <mxCell id="1W33FOhmNmDA0zy-Gag4-137" value="" style="group;" vertex="1" connectable="0" parent="1W33FOhmNmDA0zy-Gag4-115">
          <mxGeometry y="646" width="80" height="40" as="geometry" />
        </mxCell>
        <mxCell id="1W33FOhmNmDA0zy-Gag4-138" value="0x00008915" style="rounded=0;whiteSpace=wrap;html=1;verticalAlign=bottom;" vertex="1" parent="1W33FOhmNmDA0zy-Gag4-137">
          <mxGeometry y="10" width="80" height="30" as="geometry" />
        </mxCell>
        <mxCell id="1W33FOhmNmDA0zy-Gag4-139" value="&lt;b&gt;DST&lt;/b&gt;" style="rounded=1;whiteSpace=wrap;html=1;arcSize=30;" vertex="1" parent="1W33FOhmNmDA0zy-Gag4-137">
          <mxGeometry width="80" height="20" as="geometry" />
        </mxCell>
        <mxCell id="1W33FOhmNmDA0zy-Gag4-140" value="" style="group" vertex="1" connectable="0" parent="1W33FOhmNmDA0zy-Gag4-115">
          <mxGeometry y="30" width="80" height="220" as="geometry" />
        </mxCell>
        <mxCell id="1W33FOhmNmDA0zy-Gag4-141" value="" style="group;" vertex="1" connectable="0" parent="1W33FOhmNmDA0zy-Gag4-140">
          <mxGeometry width="80" height="40" as="geometry" />
        </mxCell>
        <mxCell id="1W33FOhmNmDA0zy-Gag4-142" value="RegDst" style="rounded=0;whiteSpace=wrap;html=1;verticalAlign=bottom;" vertex="1" parent="1W33FOhmNmDA0zy-Gag4-141">
          <mxGeometry y="10" width="80" height="30" as="geometry" />
        </mxCell>
        <mxCell id="1W33FOhmNmDA0zy-Gag4-143" value="&lt;b&gt;CTRL_SIG&lt;/b&gt;" style="rounded=1;whiteSpace=wrap;html=1;arcSize=30;" vertex="1" parent="1W33FOhmNmDA0zy-Gag4-141">
          <mxGeometry width="80" height="20" as="geometry" />
        </mxCell>
        <mxCell id="1W33FOhmNmDA0zy-Gag4-144" value="ExtOp" style="rounded=0;whiteSpace=wrap;html=1;" vertex="1" parent="1W33FOhmNmDA0zy-Gag4-140">
          <mxGeometry y="40" width="80" height="20" as="geometry" />
        </mxCell>
        <mxCell id="1W33FOhmNmDA0zy-Gag4-145" value="AluSrc" style="rounded=0;whiteSpace=wrap;html=1;" vertex="1" parent="1W33FOhmNmDA0zy-Gag4-140">
          <mxGeometry y="60" width="80" height="20" as="geometry" />
        </mxCell>
        <mxCell id="1W33FOhmNmDA0zy-Gag4-146" value="Beq" style="rounded=0;whiteSpace=wrap;html=1;" vertex="1" parent="1W33FOhmNmDA0zy-Gag4-140">
          <mxGeometry y="80" width="80" height="20" as="geometry" />
        </mxCell>
        <mxCell id="1W33FOhmNmDA0zy-Gag4-147" value="Bgtz" style="rounded=0;whiteSpace=wrap;html=1;" vertex="1" parent="1W33FOhmNmDA0zy-Gag4-140">
          <mxGeometry y="100" width="80" height="20" as="geometry" />
        </mxCell>
        <mxCell id="1W33FOhmNmDA0zy-Gag4-148" value="Bne" style="rounded=0;whiteSpace=wrap;html=1;" vertex="1" parent="1W33FOhmNmDA0zy-Gag4-140">
          <mxGeometry y="120" width="80" height="20" as="geometry" />
        </mxCell>
        <mxCell id="1W33FOhmNmDA0zy-Gag4-149" value="Jmp" style="rounded=0;whiteSpace=wrap;html=1;" vertex="1" parent="1W33FOhmNmDA0zy-Gag4-140">
          <mxGeometry y="140" width="80" height="20" as="geometry" />
        </mxCell>
        <mxCell id="1W33FOhmNmDA0zy-Gag4-150" value="MemWrite" style="rounded=0;whiteSpace=wrap;html=1;" vertex="1" parent="1W33FOhmNmDA0zy-Gag4-140">
          <mxGeometry y="160" width="80" height="20" as="geometry" />
        </mxCell>
        <mxCell id="1W33FOhmNmDA0zy-Gag4-151" value="MemToReg" style="rounded=0;whiteSpace=wrap;html=1;" vertex="1" parent="1W33FOhmNmDA0zy-Gag4-140">
          <mxGeometry y="180" width="80" height="20" as="geometry" />
        </mxCell>
        <mxCell id="1W33FOhmNmDA0zy-Gag4-152" value="RegWrote" style="rounded=0;whiteSpace=wrap;html=1;" vertex="1" parent="1W33FOhmNmDA0zy-Gag4-140">
          <mxGeometry y="200" width="80" height="20" as="geometry" />
        </mxCell>
        <mxCell id="1W33FOhmNmDA0zy-Gag4-159" style="edgeStyle=orthogonalEdgeStyle;rounded=0;orthogonalLoop=1;jettySize=auto;html=1;exitX=1;exitY=0.5;exitDx=0;exitDy=0;exitPerimeter=0;entryX=0;entryY=0;entryDx=0;entryDy=0;strokeWidth=2;" edge="1" parent="1" source="1W33FOhmNmDA0zy-Gag4-153" target="1W33FOhmNmDA0zy-Gag4-120">
          <mxGeometry relative="1" as="geometry">
            <Array as="points">
              <mxPoint x="805" y="75" />
              <mxPoint x="805" y="90" />
            </Array>
          </mxGeometry>
        </mxCell>
        <mxCell id="1W33FOhmNmDA0zy-Gag4-153" value="" style="shape=stencil(tZXRjoIwEEW/pq+bQsPq6wb1PyqOS2NtSdvV3b93oGCs0I0IJISkc7mHIb1DCcttySsgKS0J25A0TSjFO66vT2tuKyicL164EXwvwSvWGX2Cqzi4liFUCUa4WmVbQr/wmfpieaGVQojQygbKg44wLhR66a+Hta//C1YV8s/gwLRNNtXd68yPbAFqskSnIbPre95OZ6KGvSaL7NQ81ORNJsuxEgsxy/e8OH0b/aMOfVdUO2oDA8JdFlL6AYt9YMXruesJnXzWF/h/moawnVsK9eC+/wxaP5sKWI0FPGWMTvOvx9qz0P+ZTfOzsf7Q/sL+FVLbaHKwHgkPHguDmWs8vcQ2VX+ONIUb);whiteSpace=wrap;html=1;points=[[0,0.09,0,0,0],[0,0.5,0,0,0],[0,0.91,0,0,0],[0.5,0,0,0,0],[0.5,1,0,0,0],[1,0,0,0,0],[1,0.5,0,0,0],[1,1,0,0,0]];" vertex="1" parent="1">
          <mxGeometry x="745" y="40" width="40" height="70" as="geometry" />
        </mxCell>
        <mxCell id="1W33FOhmNmDA0zy-Gag4-157" style="edgeStyle=orthogonalEdgeStyle;rounded=0;orthogonalLoop=1;jettySize=auto;html=1;exitX=1;exitY=0.5;exitDx=0;exitDy=0;entryX=0;entryY=0.09;entryDx=0;entryDy=0;entryPerimeter=0;strokeWidth=2;" edge="1" parent="1" source="1W33FOhmNmDA0zy-Gag4-71" target="1W33FOhmNmDA0zy-Gag4-153">
          <mxGeometry relative="1" as="geometry">
            <Array as="points">
              <mxPoint x="655" y="90" />
              <mxPoint x="655" y="46" />
            </Array>
          </mxGeometry>
        </mxCell>
        <mxCell id="1W33FOhmNmDA0zy-Gag4-158" value="" style="endArrow=oval;html=1;rounded=0;edgeStyle=orthogonalEdgeStyle;exitX=0;exitY=0.91;exitDx=0;exitDy=0;exitPerimeter=0;endFill=1;startArrow=classic;startFill=1;strokeWidth=2;" edge="1" parent="1" source="1W33FOhmNmDA0zy-Gag4-153">
          <mxGeometry width="50" height="50" relative="1" as="geometry">
            <mxPoint x="746" y="91.70000000000005" as="sourcePoint" />
            <mxPoint x="663" y="277" as="targetPoint" />
            <Array as="points">
              <mxPoint x="664" y="104" />
            </Array>
          </mxGeometry>
        </mxCell>
        <mxCell id="1W33FOhmNmDA0zy-Gag4-171" style="edgeStyle=orthogonalEdgeStyle;rounded=0;orthogonalLoop=1;jettySize=auto;html=1;exitX=0.5;exitY=0;exitDx=0;exitDy=0;exitPerimeter=0;entryX=0;entryY=0.5;entryDx=0;entryDy=0;" edge="1" parent="1" source="1W33FOhmNmDA0zy-Gag4-163" target="1W33FOhmNmDA0zy-Gag4-139">
          <mxGeometry relative="1" as="geometry" />
        </mxCell>
        <mxCell id="1W33FOhmNmDA0zy-Gag4-163" value="" style="shape=trapezoid;perimeter=trapezoidPerimeter;whiteSpace=wrap;html=1;fixedSize=1;rotation=90;points=[[0,0,0,0,0],[0,0.25,0,0,0],[0,0.5,0,0,0],[0,0.75,0,0,0],[0,1,0,0,0],[0.24,1,0,0,0],[0.25,0,0,0,0],[0.5,0,0,0,0],[0.5,1,0,0,0],[0.75,0,0,0,0],[0.76,1,0,0,0],[1,0,0,0,0],[1,0.25,0,0,0],[1,0.5,0,0,0],[1,0.75,0,0,0],[1,1,0,0,0]];" vertex="1" parent="1">
          <mxGeometry x="650" y="446" width="80" height="20" as="geometry" />
        </mxCell>
        <mxCell id="1W33FOhmNmDA0zy-Gag4-167" style="edgeStyle=orthogonalEdgeStyle;rounded=0;orthogonalLoop=1;jettySize=auto;html=1;exitX=1;exitY=0.5;exitDx=0;exitDy=0;entryX=0.24;entryY=1;entryDx=0;entryDy=0;entryPerimeter=0;strokeWidth=2;" edge="1" parent="1" source="1W33FOhmNmDA0zy-Gag4-87" target="1W33FOhmNmDA0zy-Gag4-163">
          <mxGeometry relative="1" as="geometry" />
        </mxCell>
        <mxCell id="1W33FOhmNmDA0zy-Gag4-169" style="edgeStyle=orthogonalEdgeStyle;rounded=0;orthogonalLoop=1;jettySize=auto;html=1;exitX=1;exitY=0.5;exitDx=0;exitDy=0;entryX=0.76;entryY=1;entryDx=0;entryDy=0;entryPerimeter=0;strokeWidth=2;" edge="1" parent="1" source="1W33FOhmNmDA0zy-Gag4-91" target="1W33FOhmNmDA0zy-Gag4-163">
          <mxGeometry relative="1" as="geometry" />
        </mxCell>
        <mxCell id="1W33FOhmNmDA0zy-Gag4-170" style="edgeStyle=orthogonalEdgeStyle;rounded=0;orthogonalLoop=1;jettySize=auto;html=1;exitX=1;exitY=0.5;exitDx=0;exitDy=0;entryX=0;entryY=0.5;entryDx=0;entryDy=0;" edge="1" parent="1" source="1W33FOhmNmDA0zy-Gag4-96" target="1W33FOhmNmDA0zy-Gag4-108">
          <mxGeometry relative="1" as="geometry" />
        </mxCell>
      </root>
    </mxGraphModel>
  </diagram>
</mxfile>
